<svg width="46" height="46" viewBox="0 0 46 46" fill="none" xmlns="http://www.w3.org/2000/svg">
<rect width="46" height="46" rx="23" fill="#4C4D4D"/>
<path fill-rule="evenodd" clip-rule="evenodd" d="M32 32H28.3016V25.7007C28.3016 23.9736 27.6453 23.0085 26.2783 23.0085C24.7912 23.0085 24.0143 24.0129 24.0143 25.7007V32H20.45V20H24.0143V21.6164C24.0143 21.6164 25.0859 19.6334 27.6324 19.6334C30.1777 19.6334 32 21.1877 32 24.4023V32ZM16.1979 18.4287C14.9838 18.4287 14 17.4372 14 16.2143C14 14.9915 14.9838 14 16.1979 14C17.4119 14 18.3951 14.9915 18.3951 16.2143C18.3951 17.4372 17.4119 18.4287 16.1979 18.4287ZM14.3574 32H18.074V20H14.3574V32Z" fill="white"/>
</svg>
